<svg xmlns="http://www.w3.org/2000/svg" version="1.0" width="300.000000pt" height="300.000000pt" viewBox="0 0 300.000000 300.000000" preserveAspectRatio="xMidYMid meet">
<metadata fill="#4d1f00">
Created by potrace 1.10, written by Peter Selinger 2001-2011
</metadata>
<g transform="translate(0.000000,300.000000) scale(0.100000,-0.100000)" fill="#4d1f00" stroke="none">
<path d="M1395 2970 c-11 -5 -39 -26 -62 -48 -38 -35 -43 -45 -43 -84 0 -34 7 -51 30 -78 25 -30 29 -44 30 -92 0 -49 4 -61 35 -98 43 -51 47 -38 5 15 -22 28 -30 48 -30 78 0 48 2 46 38 -24 24 -48 30 -54 55 -51 24 3 27 0 27 -25 0 -53 -45 -93 -121 -107 -67 -12 -73 -29 -80 -205 -6 -167 -18 -213 -74 -287 -39 -50 -134 -91 -243 -105 -112 -14 -147 -34 -181 -103 -40 -80 -71 -228 -78 -367 -7 -145 -2 -183 32 -233 l24 -36 -112 0 c-164 -1 -176 -5 -305 -102 -40 -30 -50 -33 -140 -38 -77 -4 -104 -10 -133 -28 -59 -36 -69 -60 -69 -156 0 -84 1 -86 26 -92 14 -4 37 -1 51 5 51 23 76 -2 107 -110 26 -93 87 -142 217 -175 90 -23 304 -15 409 16 182 52 337 149 482 298 156 161 286 382 361 611 l34 103 6 -134 c3 -73 16 -212 27 -308 17 -132 20 -209 17 -315 -8 -208 -42 -300 -165 -437 -58 -64 -80 -103 -68 -115 3 -4 6 1 6 9 0 9 36 56 81 105 171 186 207 347 170 748 -11 121 -22 274 -26 340 -3 66 -10 122 -16 123 -5 2 -9 15 -9 29 0 21 2 23 15 13 8 -7 12 -16 10 -21 -3 -4 12 -49 34 -100 183 -423 542 -659 906 -595 165 29 224 17 210 -43 -6 -27 -76 -101 -95 -101 -26 0 -20 32 10 60 17 16 29 34 25 40 -7 12 -16 13 -14 3 3 -21 -3 -32 -21 -38 -31 -10 -45 -44 -27 -62 21 -22 56 -10 100 32 42 41 54 76 38 111 -18 40 -53 48 -166 35 -200 -22 -311 -10 -439 48 -98 44 -183 106 -273 197 -106 108 -129 151 -31 58 86 -82 183 -134 259 -142 28 -2 90 1 139 7 96 14 131 6 154 -32 9 -15 7 -22 -13 -38 -30 -24 -136 -26 -223 -3 -79 20 -85 12 -11 -16 36 -14 91 -24 145 -27 l87 -6 31 32 c37 37 35 71 -6 108 -37 33 -68 38 -176 26 -116 -13 -155 -6 -252 45 -139 73 -307 278 -361 441 -13 42 -31 121 -39 176 -8 58 -25 127 -40 163 l-27 64 25 23 c13 12 29 40 34 61 19 75 54 393 48 428 -7 36 -12 39 -78 50 -45 8 -78 46 -78 90 0 23 -6 34 -25 42 -23 11 -24 10 -31 -32 -7 -52 1 -101 22 -129 14 -19 15 -18 10 18 l-5 38 30 -25 c17 -14 48 -31 70 -37 45 -14 52 -29 46 -105 -4 -50 -27 -107 -87 -213 -37 -67 -38 -109 -4 -198 56 -144 27 -256 -102 -392 -167 -178 -381 -323 -568 -386 -100 -34 -159 -33 -189 1 -32 36 -35 54 -36 194 -1 175 37 405 71 426 6 4 32 7 57 6 25 0 61 6 80 14 66 28 163 44 262 44 113 0 149 13 174 60 19 36 19 117 0 150 -13 23 -13 20 -8 -34 10 -101 -31 -147 -131 -146 l-41 1 35 17 c95 48 99 55 126 195 11 53 24 97 29 97 6 0 38 -27 72 -60 l61 -60 58 63 c55 58 112 150 129 206 12 40 -11 15 -64 -67 -28 -42 -66 -92 -85 -111 l-35 -34 -50 42 c-87 73 -128 54 -150 -69 -16 -92 -20 -103 -46 -129 -35 -35 -39 -22 -11 35 22 44 35 89 42 149 1 11 3 66 3 123 1 117 10 133 82 152 23 6 58 27 77 46 l36 35 18 -36 c10 -19 23 -35 29 -35 7 0 4 12 -6 27 -11 16 -20 54 -23 97 -5 73 -17 111 -32 101 -5 -3 -11 -1 -14 4 -4 5 -28 17 -55 26 -90 29 -149 121 -118 181 14 26 14 26 20 -26 11 -95 67 -150 152 -150 59 1 189 60 193 88 5 31 -18 36 -72 18 -85 -29 -189 -14 -215 31 -6 10 -11 13 -11 6 0 -22 60 -62 104 -68 27 -4 66 -1 106 9 35 9 65 14 68 11 8 -8 -17 -33 -41 -38 -12 -3 -46 -14 -75 -25 -110 -40 -192 19 -192 138 l0 40 56 0 c48 0 59 -4 85 -30 36 -36 70 -60 83 -60 6 0 -1 8 -14 17 -14 10 -33 28 -43 40 -26 33 -70 53 -114 53 -48 0 -31 19 24 27 54 7 126 -25 147 -65 8 -16 28 -37 43 -47 l28 -18 -27 30 c-16 16 -28 34 -28 39 0 17 -42 52 -82 69 -41 16 -82 18 -113 5z m251 -894 c-7 -45 -26 -74 -26 -39 0 27 21 96 27 89 3 -3 2 -25 -1 -50z m25 -566 c-20 -127 -97 -315 -199 -485 -123 -206 -299 -374 -492 -472 -209 -106 -479 -132 -641 -60 -68 30 -93 61 -119 146 -31 104 -75 137 -158 117 -38 -9 -48 5 -38 59 15 79 101 133 191 120 58 -9 103 7 178 64 95 71 106 74 257 77 74 1 164 7 199 14 213 38 456 185 667 402 73 75 109 121 130 166 l29 61 3 -71 c2 -40 -2 -102 -7 -138z" fill="#4d1f00"/>
<path d="M1677 2764 c-4 -4 -4 -17 -1 -29 8 -33 -26 -68 -64 -67 -18 0 -42 4 -55 7 -17 6 -19 4 -11 -5 17 -17 88 -24 112 -11 12 6 26 26 31 44 l9 32 1 -33 c1 -18 -10 -54 -24 -80 -21 -40 -23 -49 -12 -66 12 -17 87 -52 87 -41 0 3 -18 14 -40 25 -22 11 -40 23 -40 26 0 3 11 26 25 52 29 54 31 81 10 122 -17 32 -18 33 -28 24z" fill="#4d1f00"/>
<path d="M880 1770 c188 -127 303 -174 430 -175 117 0 196 35 241 109 26 43 24 65 -3 30 -61 -79 -116 -99 -246 -91 -105 6 -159 21 -292 84 -81 39 -164 66 -130 43z" fill="#4d1f00"/>
<path d="M857 1728 c41 -45 47 -71 53 -208 7 -157 20 -193 78 -217 30 -13 45 -14 82 -4 114 29 291 138 411 252 41 39 64 65 53 58 -12 -8 -73 -49 -135 -91 -163 -110 -347 -192 -392 -175 -34 13 -48 54 -57 165 -9 118 -26 171 -67 215 -32 32 -56 37 -26 5z" fill="#4d1f00"/>
<path d="M1867 1000 c26 -49 177 -199 251 -249 158 -106 334 -164 536 -177 85 -5 119 -11 123 -21 9 -23 -16 -41 -89 -63 -96 -29 -161 -73 -238 -159 -92 -104 -123 -119 -274 -137 -130 -15 -189 -31 -234 -62 -98 -70 -160 -77 -262 -32 -87 38 -119 38 -206 -4 l-70 -33 -215 2 c-177 1 -220 5 -246 18 -42 22 -63 54 -64 97 0 26 -2 30 -8 16 -13 -34 0 -75 35 -106 48 -41 102 -54 209 -46 58 4 117 1 168 -8 89 -15 124 -10 208 29 70 32 95 31 182 -6 108 -48 150 -45 267 18 105 57 111 58 260 73 67 7 119 18 147 31 23 11 82 61 130 110 98 101 144 132 234 159 73 22 109 52 109 92 0 28 -30 67 -52 69 -7 0 -60 2 -118 5 -195 7 -343 50 -502 145 -83 50 -202 154 -267 234 l-32 40 18 -35z" fill="#4d1f00"/>
<path d="M730 380 c-53 -11 -78 -24 -163 -83 -95 -67 -157 -86 -210 -63 -42 17 -71 65 -65 107 3 16 1 29 -4 29 -4 0 -8 -19 -8 -42 0 -88 69 -146 157 -134 48 6 94 28 185 86 97 63 165 73 211 32 10 -9 34 -44 53 -77 56 -102 68 -108 192 -116 65 -4 122 -13 144 -23 39 -17 103 -22 112 -8 3 5 -8 6 -24 4 -20 -3 -49 6 -87 25 -45 23 -77 32 -143 37 -99 8 -107 13 -157 109 -53 100 -108 134 -193 117z" fill="#4d1f00"/>
</g>
</svg>